HIERARCHY
ROOT Hips
{
	OFFSET	0.00	0.00	0.00
	CHANNELS 6 Xposition Yposition Zposition Zrotation Xrotation Yrotation
	JOINT LeftUpLeg
	{
		OFFSET	 0.126116	-0.014019	-0.065224
		CHANNELS 3 Zrotation Xrotation Yrotation
		JOINT LeftLeg
		{
			OFFSET	 0.000000	 0.000000	 0.569914
			CHANNELS 3 Zrotation Xrotation Yrotation
			JOINT LeftFoot
			{
				OFFSET	 0.000000	 0.000000	 0.544423
				CHANNELS 3 Zrotation Xrotation Yrotation
				JOINT LeftToeBase
				{
					OFFSET	 0.000000	 0.000000	 0.207117
					CHANNELS 3 Zrotation Xrotation Yrotation
					End Site
					{
						OFFSET	 0.000000	 0.000000	 0.207117
					}
				}
			}
		}
	}
	JOINT RightUpLeg
	{
		OFFSET	-0.124023	-0.008373	-0.065224
		CHANNELS 3 Zrotation Xrotation Yrotation
		JOINT RightLeg
		{
			OFFSET	 0.000000	 0.000000	 0.570047
			CHANNELS 3 Zrotation Xrotation Yrotation
			JOINT RightFoot
			{
				OFFSET	 0.000000	 0.000000	 0.544354
				CHANNELS 3 Zrotation Xrotation Yrotation
				JOINT RightToeBase
				{
					OFFSET	 0.000000	 0.000000	 0.207540
					CHANNELS 3 Zrotation Xrotation Yrotation
					End Site
					{
						OFFSET	 0.000000	 0.000000	 0.207540
					}
				}
			}
		}
	}
	JOINT Spine
	{
		OFFSET	 0.000184	-0.007763	 0.117403
		CHANNELS 3 Zrotation Xrotation Yrotation
		JOINT Spine1
		{
			OFFSET	 0.000000	 0.000000	 0.137269
			CHANNELS 3 Zrotation Xrotation Yrotation
			JOINT Spine2
			{
				OFFSET	 0.000000	 0.000000	 0.156879
				CHANNELS 3 Zrotation Xrotation Yrotation
				JOINT LeftShoulder
				{
					OFFSET	 0.080501	-0.002496	 0.160144
					CHANNELS 3 Zrotation Xrotation Yrotation
					JOINT LeftArm
					{
						OFFSET	 0.000000	 0.000000	 0.164363
						CHANNELS 3 Zrotation Xrotation Yrotation
						JOINT LeftForeArm
						{
							OFFSET	 0.000000	 0.000000	 0.364576
							CHANNELS 3 Zrotation Xrotation Yrotation
							JOINT LeftHand
							{
								OFFSET	 0.000000	 0.000000	 0.360812
								CHANNELS 3 Zrotation Xrotation Yrotation
								JOINT LeftHandIndex1
								{
									OFFSET	 0.000000	 0.000000	 0.086006
									CHANNELS 3 Zrotation Xrotation Yrotation
									JOINT LeftHandIndex2
									{
										OFFSET	 0.000000	 0.000000	 0.047236
										CHANNELS 3 Zrotation Xrotation Yrotation
										JOINT LeftHandIndex3
										{
											OFFSET	-0.004284	-0.000551	 0.038166
											CHANNELS 3 Zrotation Xrotation Yrotation
											End Site
											{
												OFFSET	-0.004284	-0.000551	 0.038166
											}
										}
									}
								}
							}
						}
					}
				}
				JOINT Neck
				{
					OFFSET	 0.000000	 0.000000	 0.176489
					CHANNELS 3 Zrotation Xrotation Yrotation
					JOINT Head
					{
						OFFSET	 0.000000	-0.001747	 0.077940
						CHANNELS 3 Zrotation Xrotation Yrotation
						End Site
						{
							OFFSET	 0.000000	-0.001747	 0.077940
						}
					}
				}
				JOINT RightShoulder
				{
					OFFSET	-0.080363	 0.000306	 0.159706
					CHANNELS 3 Zrotation Xrotation Yrotation
					JOINT RightArm
					{
						OFFSET	 0.000000	 0.000000	 0.164196
						CHANNELS 3 Zrotation Xrotation Yrotation
						JOINT RightForeArm
						{
							OFFSET	 0.000000	 0.000000	 0.365611
							CHANNELS 3 Zrotation Xrotation Yrotation
							JOINT RightHand
							{
								OFFSET	 0.000000	 0.000000	 0.360648
								CHANNELS 3 Zrotation Xrotation Yrotation
								JOINT RightHandIndex1
								{
									OFFSET	 0.000000	 0.000000	 0.069977
									CHANNELS 3 Zrotation Xrotation Yrotation
									JOINT RightHandIndex2
									{
										OFFSET	 0.000000	 0.000000	 0.052305
										CHANNELS 3 Zrotation Xrotation Yrotation
										JOINT RightHandIndex3
										{
											OFFSET	 0.009002	-0.000782	 0.042196
											CHANNELS 3 Zrotation Xrotation Yrotation
											End Site
											{
												OFFSET	 0.009002	-0.000782	 0.042196
											}
										}
									}
								}
							}
						}
					}
				}
			}
		}
	}
}
MOTION
Frames:    8
Frame Time: 0.03333334
 0.000141	 0.042310	 1.276824	-0.090026	 2.399912	 0.528022	-12.282930	-5.409721	 179.802200	 2.297752	-13.017600	 0.611833	 0.605842	 71.348560	-0.873033	-2.385833	 28.452750	 0.000004	 19.873600	-4.923519	-179.968300	-0.800487	-11.306380	 0.853590	 4.880083	 70.174480	 1.495707	 2.384659	 28.388700	-0.000001	-3.029671	 6.767185	 0.804517	-1.475395	-4.619792	-0.137474	 4.803604	 7.563336	-0.241368	-91.192150	 69.944340	-177.879900	-7.851962	 1.603329	-3.632442	 23.725070	-8.604193	-32.501660	-10.179420	-29.155190	-4.583601	-2.027600	 6.559038	 9.033609	-5.188889	 0.308190	 3.541030	-5.234859	 0.342567	 0.430617	 4.323463	 17.378210	-6.557671	-0.240075	-12.683830	 2.079569	 89.045680	 68.897920	 177.429700	 9.667592	 7.096178	 5.129700	-26.167910	-9.235641	 25.604550	 8.037538	-29.265320	 6.996005	 1.803333	 3.979147	-15.098590	 4.898592	 3.004813	-9.310344	 5.224449	 0.395017	 2.014677
-0.000066	 0.043691	 1.278240	-0.066891	 2.865906	 0.530491	-12.348510	-5.573483	 179.661400	 2.191146	-12.204980	 0.551656	 0.286253	 70.736670	-0.419932	-2.385833	 28.452750	 0.000004	 19.858230	-4.957310	-179.741100	-0.797455	-10.265010	 0.776412	 5.003428	 69.485890	 1.330157	 2.384659	 28.388700	-0.000001	-3.100242	 7.190900	 0.889451	-1.551750	-6.159331	-0.257010	 4.952748	 9.434035	-0.332270	-91.072100	 69.130260	-177.606300	-7.395237	 0.928061	-4.465370	 23.383060	-8.557761	-33.069730	-9.091380	-30.588120	-4.848089	-2.027600	 6.559038	 9.033609	-5.188889	 0.308190	 3.541030	-5.234859	 0.342567	 0.430617	 4.575697	 19.504940	-7.232654	-0.042079	-14.111280	 2.078757	 88.881630	 67.779070	 177.101500	 9.248176	 6.205889	 6.128967	-26.216370	-9.431884	 26.009160	 6.722910	-30.300330	 6.625589	 1.803333	 3.979147	-15.098590	 4.898592	 3.004813	-9.310344	 5.224449	 0.395017	 2.014677
-0.000361	 0.045433	 1.279419	-0.026741	 3.413321	 0.546605	-12.439670	-5.934811	 179.474000	 2.146523	-11.589350	 0.515240	-0.163635	 70.267280	 0.114222	-2.385833	 28.452750	 0.000004	 19.815970	-5.142017	-179.501600	-0.800898	-9.319820	 0.705027	 5.189692	 68.817040	 1.104004	 2.384659	 28.388700	-0.000001	-3.105821	 7.570511	 0.967773	-1.614915	-7.662256	-0.393568	 5.015945	 11.132770	-0.402254	-90.974850	 68.469850	-177.403700	-7.001640	 0.654914	-5.130331	 22.995540	-8.507960	-33.748940	-8.275385	-32.227930	-5.251969	-2.027600	 6.559038	 9.033609	-5.188889	 0.308190	 3.541030	-5.234859	 0.342567	 0.430617	 4.700395	 21.369740	-7.802292	 0.193425	-15.448530	 2.103071	 88.724310	 66.694540	 176.819400	 8.798621	 5.564081	 6.966965	-26.148600	-9.598790	 26.493490	 5.521536	-31.507060	 6.343481	 1.803333	 3.979147	-15.098590	 4.898592	 3.004813	-9.310344	 5.224449	 0.395017	 2.014677
-0.000723	 0.047573	 1.280417	 0.026622	 4.038788	 0.577502	-12.607770	-6.477520	 179.232700	 2.093733	-11.142730	 0.496207	-0.722910	 69.903870	 0.721044	-2.385833	 28.452750	 0.000004	 19.752200	-5.458780	-179.248700	-0.809582	-8.433135	 0.637191	 5.438463	 68.144760	 0.814714	 2.384659	 28.388700	-0.000001	-3.058833	 7.921840	 1.034812	-1.671482	-9.135614	-0.540005	 5.013624	 12.731820	-0.454275	-90.893700	 67.906300	-177.247300	-6.613949	 0.755746	-5.732794	 22.568720	-8.446775	-34.512950	-7.667579	-34.081210	-5.789711	-2.027600	 6.559038	 9.033609	-5.188889	 0.308190	 3.541030	-5.234859	 0.342567	 0.430617	 4.729584	 23.092820	-8.298836	 0.462209	-16.756780	 2.153705	 88.567900	 65.605410	 176.563600	 8.307857	 5.177300	 7.737307	-25.994460	-9.738296	 27.029570	 4.381016	-32.887230	 6.132659	 1.803333	 3.979147	-15.098590	 4.898592	 3.004813	-9.310344	 5.224449	 0.395017	 2.014677
-0.001078	 0.049956	 1.281282	 0.080769	 4.679108	 0.611949	-12.660050	-7.079792	 178.989700	 2.157641	-10.757320	 0.479722	-1.281170	 69.556980	 1.328719	-2.385833	 28.452760	 0.000004	 19.674910	-5.803353	-178.990600	-0.847808	-7.542717	 0.565281	 5.730968	 67.462660	 0.508174	 2.384659	 28.388700	-0.000001	-3.005482	 8.248450	 1.089856	-1.736863	-10.501870	-0.666283	 5.004451	 14.238990	-0.512498	-90.823860	 67.321420	-177.136400	-6.157747	 1.044296	-6.346222	 22.082120	-8.327005	-35.270770	-7.255718	-35.931950	-6.410173	-2.027600	 6.559038	 9.033609	-5.188889	 0.308190	 3.541030	-5.234859	 0.342567	 0.430617	 4.738296	 24.665250	-8.725445	 0.720393	-17.957940	 2.193064	 88.428090	 64.523730	 176.368100	 7.762058	 5.004422	 8.480019	-25.804550	-9.843370	 27.537740	 3.321671	-34.282420	 5.997722	 1.803333	 3.979147	-15.098590	 4.898592	 3.004813	-9.310344	 5.224449	 0.395017	 2.014677
-0.001447	 0.052840	 1.282276	 0.145786	 5.474994	 0.671088	-12.803110	-7.801381	 178.664000	 2.130630	-10.242160	 0.453198	-1.949609	 69.141940	 2.083636	-2.385833	 28.452760	 0.000004	 19.521550	-6.084428	-178.676800	-1.073591	-6.130644	 0.435675	 6.186015	 66.534390	 0.219614	 2.384659	 28.388700	-0.000001	-2.909090	 8.498088	 1.104556	-1.809386	-12.062590	-0.779622	 4.905174	 15.662920	-0.591014	-90.828870	 66.547640	-177.276400	-5.468163	 1.285782	-6.641039	 21.130980	-7.842833	-36.042680	-7.580040	-37.775300	-7.338617	-2.027600	 6.559038	 9.033609	-5.188889	 0.308190	 3.541030	-5.234859	 0.342567	 0.430617	 4.533092	 25.483360	-8.777875	 0.876973	-18.660240	 2.112762	 88.404760	 63.373230	 176.489300	 6.804442	 4.773842	 8.855721	-25.299580	-9.756027	 28.041320	 2.510908	-35.645880	 6.204366	 1.803333	 3.979147	-15.098590	 4.898592	 3.004813	-9.310344	 5.224449	 0.395017	 2.014677
-0.001831	 0.056085	 1.283144	 0.213751	 6.301937	 0.731684	-12.944150	-8.607276	 178.317600	 2.116957	-9.793309	 0.431205	-2.625947	 68.729680	 2.841853	-2.385832	 28.452790	-0.000001	 19.353760	-6.294902	-178.341800	-1.309687	-4.463993	 0.299061	 6.641811	 65.447830	-0.057860	 2.384659	 28.388700	-0.000001	-2.806023	 8.738963	 1.114315	-1.885411	-13.462040	-0.871970	 4.805033	 17.036480	-0.668767	-90.838730	 65.747480	-177.416800	-4.694288	 1.731084	-7.123968	 20.181370	-7.304222	-36.724660	-8.038839	-39.690360	-8.360004	-2.027600	 6.559038	 9.033609	-5.188889	 0.308190	 3.541030	-5.234859	 0.342567	 0.430617	 4.320384	 26.330140	-8.824552	 1.038582	-19.385080	 2.034738	 88.387080	 62.183590	 176.608600	 5.782570	 4.750833	 9.396375	-24.807010	-9.619752	 28.427910	 1.730202	-37.094530	 6.459277	 1.803333	 3.979147	-15.098590	 4.898592	 3.004813	-9.310344	 5.224449	 0.395017	 2.014677
-0.002044	 0.059967	 1.283518	 0.351053	 7.293997	 0.760629	-13.170900	-9.860957	 177.946200	 2.068876	-9.812743	 0.423849	-3.340025	 68.409470	 3.692386	-2.385832	 28.452790	-0.000001	 19.147880	-7.187060	-177.956600	-1.443948	-3.826524	 0.247424	 7.303357	 64.858430	-0.665726	 2.384659	 28.388700	-0.000001	-2.727492	 8.812955	 1.098929	-1.964940	-15.133670	-0.968673	 4.669342	 18.320850	-0.692778	-91.073520	 65.285280	-178.107500	-3.796474	 2.692601	-6.737997	 19.490790	-6.946194	-37.424680	-8.629871	-41.421030	-9.437128	-2.027600	 6.559038	 9.033609	-5.188889	 0.308190	 3.541030	-5.234859	 0.342567	 0.430617	 4.070577	 26.706270	-8.805197	 1.158250	-19.839420	 1.980131	 88.597470	 61.538720	 177.187400	 4.462936	 5.425153	 9.094590	-24.417870	-9.544205	 28.826360	 1.015173	-38.627010	 6.711154	 1.803333	 3.979147	-15.098590	 4.898592	 3.004813	-9.310344	 5.224449	 0.395017	 2.014677
